<?xml version="1.0" encoding="UTF-8"?>
<!-- Generated by Pixelmator Pro 4.2 -->
<svg width="1024" height="1024" viewBox="0 0 1024 1024" xmlns="http://www.w3.org/2000/svg">
    <path id="path1" fill="#000000" stroke="none" d="M 171.675217 512 L 167.688766 508.681274 L 167.688766 393.976746 C 167.688766 384.850159 166.692154 378.108948 164.698929 373.753113 C 162.705688 369.397217 160.546387 366.45874 158.220932 364.937622 C 155.895477 363.416565 149.472931 361.273193 138.953064 358.507568 C 121.567596 352.561462 112.875 337.765442 112.875 314.119202 C 112.875 300.982361 116.584579 287.500122 124.003853 273.671875 L 128.986923 273.671875 C 129.097656 281.277344 135.243393 286.324646 147.424286 288.813721 L 162.207382 291.510193 C 171.730637 293.307861 178.34697 297.62915 182.05661 304.47406 C 185.766251 311.319031 187.621048 321.448059 187.621048 334.86145 L 187.621048 484.205444 C 187.621048 496.789124 182.305817 506.053833 171.675217 512 Z M 265.523041 343.365723 L 236.455124 415.548645 L 228.316101 415.548645 L 230.641541 322.830933 C 231.305954 295.174438 240.607605 281.346497 258.546722 281.346497 C 270.949097 281.346497 277.150177 289.574158 277.150177 306.029724 C 277.150177 311.69928 273.274506 324.144531 265.523041 343.365723 Z M 335.119904 343.365723 L 306.052002 415.548645 L 297.912964 415.548645 L 300.238403 322.830933 C 300.902832 295.174438 310.204468 281.346497 328.143585 281.346497 C 340.54599 281.346497 346.74707 289.574158 346.74707 306.029724 C 346.74707 311.69928 342.871368 324.144531 335.119904 343.365723 Z M 393.0896 357.677856 C 381.351624 350.348938 375.482758 338.041992 375.482758 320.756714 C 375.482758 303.747986 379.579926 288.675476 387.774323 275.538696 L 392.757385 275.538696 C 393.975494 284.941833 399.013885 289.643372 407.872711 289.643372 L 444.083008 289.643372 C 459.253754 289.643372 470.548615 293.584412 477.967896 301.466431 C 485.387146 309.348511 491.42215 321.275208 496.073029 337.246765 C 500.723938 353.218384 503.049347 373.234436 503.049347 397.295532 C 503.049347 439.333313 497.346558 468.406677 485.940796 484.516541 C 474.535034 500.626465 457.81424 508.681274 435.777893 508.681274 L 368.838654 508.681274 L 381.296326 435.253784 L 459.862732 435.253784 C 470.714813 435.253784 478.050903 431.865906 481.871277 425.090088 C 485.691681 418.31427 487.601807 409.049561 487.601807 397.295532 C 487.601807 373.372742 478.35556 361.411499 459.862732 361.411499 L 402.557434 361.411499 C 401.339355 365.006775 400.730316 368.394714 400.730316 371.575134 C 400.730316 375.447021 401.61618 378.108948 403.387939 379.560913 C 405.159698 381.012878 408.48172 381.738831 413.354095 381.738831 L 419.832062 381.738831 C 428.469421 381.738831 432.788055 385.610657 432.788055 393.354492 L 432.788055 404.762695 C 432.788055 411.400208 429.466034 414.718994 422.82193 414.718994 L 402.557434 414.718994 C 397.685089 414.718994 394.529144 416.585754 393.0896 420.319397 L 386.279419 420.319397 C 384.175446 410.501343 383.123474 402.826782 383.123474 397.295532 C 383.123474 383.328979 386.445465 370.123291 393.0896 357.677856 Z M 698.551758 273.671875 C 699.105408 279.756287 703.479431 284.803528 711.673828 288.813721 L 719.314575 292.547302 C 734.374573 299.876221 741.90448 313.565979 741.90448 333.616882 C 741.90448 341.913757 740.769409 348.896973 738.49939 354.566528 C 736.229309 360.236084 731.55072 369.224304 724.463745 381.531433 C 714.38678 398.816711 706.96759 416.793091 702.205994 435.461182 C 697.444397 454.129272 693.956238 478.535767 691.741577 508.681274 L 552.547852 508.681274 C 552.547852 497.756958 550.997559 479.089172 547.896973 452.677246 C 546.014465 438.019348 545.073242 426.680359 545.073242 418.659973 C 545.073242 398.470825 547.841614 379.664734 553.378357 362.24115 C 535.32843 354.773987 526.30365 338.733398 526.30365 314.119202 C 526.30365 299.046448 528.905945 285.564148 534.110474 273.671875 L 539.591858 273.671875 C 541.363586 281.553894 547.232544 286.462891 557.198669 288.398865 L 568.161438 290.265625 C 575.580688 291.510193 581.394287 295.65863 585.602173 302.710999 C 589.81012 309.763367 591.914063 318.682495 591.914063 329.468445 C 591.914063 339.562988 590.585266 349.450134 587.927612 359.129822 C 580.619141 362.171997 573.642822 363.693115 566.998718 363.693115 C 564.783997 371.851746 563.676697 382.084473 563.676697 394.391602 C 563.676697 405.730774 566.555786 419.351318 572.314026 435.253784 L 595.734436 435.253784 C 609.908569 411.054443 620.539063 386.578796 627.626038 361.826294 C 611.015747 355.050537 602.710693 339.148315 602.710693 314.119202 C 602.710693 299.046448 605.312988 285.564148 610.517517 273.671875 L 615.666687 273.671875 C 617.438477 281.139099 623.362793 286.048096 633.439636 288.398865 L 644.900696 290.680481 C 650.548157 291.786743 655.116028 294.344971 658.604126 298.355103 C 662.092285 302.365295 664.583862 306.997681 666.078735 312.25238 C 667.573669 317.50708 668.321106 323.245789 668.321106 329.468445 C 668.321106 339.562988 666.936951 349.450134 664.168579 359.129822 C 656.970825 362.171997 650.049866 363.693115 643.405762 363.693115 C 635.211426 393.976929 626.241882 417.8302 616.497192 435.253784 L 679.283875 435.253784 C 685.26355 421.010681 692.461365 406.629578 700.877197 392.109985 C 704.199219 386.302124 705.860229 381.047424 705.860229 376.345886 C 705.860229 370.676331 703.424072 365.698181 698.551758 361.411499 L 693.236511 356.848206 C 684.15625 348.966125 679.616089 336.036926 679.616089 318.060242 C 679.616089 311.146179 681.055664 303.298706 683.934753 294.517822 C 686.813843 285.736938 689.914429 278.788269 693.236511 273.671875 Z M 811.169128 361.411499 L 807.514893 361.411499 C 795.00177 361.411499 786.059998 357.193909 780.689331 348.758728 C 775.318726 340.323547 772.633362 330.989563 772.633362 320.756714 C 772.633362 303.194885 776.67511 288.122375 784.75885 275.538696 L 789.575806 275.538696 C 791.015381 284.941833 796.053711 289.643372 804.691162 289.643372 L 862.660828 289.643372 C 882.371704 289.643372 895.189209 295.796814 901.113525 308.103943 C 907.037842 320.411133 910 339.562805 910 365.559937 L 910 483.168335 C 910 496.581726 905.570679 506.192139 896.711792 512 L 890.898254 509.096069 L 890.898254 401.029114 C 890.898254 383.467285 888.572815 372.473999 883.921936 368.049011 C 879.271057 363.623962 872.073364 361.411499 862.328613 361.411499 L 827.447144 361.411499 L 822.630188 372.197449 C 817.093445 384.781128 814.325073 395.013855 814.325073 402.895935 L 814.657288 411.815063 C 814.989502 419.144043 816.705872 430.621277 819.806458 446.247131 C 821.245972 454.129272 821.965759 462.356934 821.965759 470.93042 L 820.304749 508.681274 L 754.860413 508.681274 L 767.816406 435.253784 L 793.063965 435.253784 L 792.399536 419.489685 C 791.62439 404.693481 795.389343 389.897522 803.694519 375.101318 Z"/>
    <path id="5786" fill="#000000" stroke="none" d="M 706 640.6875 L 706 643.428528 C 694.1875 646.430603 684.70813 650.297363 677.56189 655.028931 C 670.415649 659.760437 664.770447 665.50354 660.626282 672.258179 C 656.482117 679.012939 653.267944 687.382751 650.983765 697.36792 C 653.855286 695.410034 656.237366 694.137451 658.130005 693.550049 C 662.37207 692.244873 666.646729 691.592224 670.954041 691.592224 C 680.873962 691.592224 689.145996 695.197876 695.770081 702.409424 C 702.394226 709.620972 705.706299 719.459229 705.706299 731.924438 C 705.706299 740.669617 703.911621 748.696777 700.322144 756.006226 C 696.732727 763.315674 691.642273 768.960815 685.050781 772.941895 C 678.459229 776.922852 671.410889 778.913391 663.905701 778.913391 C 655.747925 778.913391 648.210083 776.678101 641.292297 772.207642 C 634.374451 767.737183 628.973999 761.194702 625.090881 752.579956 C 621.207764 743.965332 619.266174 734.60022 619.266174 724.484497 C 619.266174 709.604553 622.839294 695.752808 629.985535 682.928589 C 637.131775 670.104492 647.280029 659.890991 660.430481 652.287903 C 673.580933 644.684814 688.77063 640.817993 706 640.6875 Z M 649.711121 705.297363 C 649.189026 714.303589 648.927979 720.89502 648.927979 725.071838 C 648.927979 734.078125 649.792725 742.790527 651.522156 751.209473 C 653.251648 759.628357 655.617371 765.534546 658.619446 768.928223 C 660.773132 771.342896 663.318359 772.550293 666.255188 772.550293 C 669.257263 772.550293 671.932983 770.804504 674.282471 767.312988 C 676.631897 763.821411 677.806641 756.724182 677.806641 746.021118 C 677.806641 728.008545 675.6203 715.576172 671.247742 708.723633 C 668.441467 704.285767 664.65625 702.066833 659.89209 702.066833 C 657.281555 702.066833 653.887939 703.143677 649.711121 705.297363 Z M 579.912964 701.185791 C 589.245483 708.038391 595.722778 714.417725 599.344849 720.323975 C 602.966919 726.230347 604.777954 733.001221 604.777954 740.636963 C 604.777954 751.340027 600.747986 760.395142 592.688049 767.802429 C 584.628174 775.209778 573.680481 778.913391 559.844727 778.913391 C 546.726929 778.913391 536.578674 775.682922 529.39978 769.221924 C 522.220947 762.760864 518.63147 754.864197 518.63147 745.531616 C 518.63147 738.417969 520.703552 732.185547 524.847717 726.833923 C 528.991882 721.482361 535.893433 716.587769 545.552246 712.149902 C 535.044983 704.122559 528.306641 697.563721 525.337219 692.473267 C 522.367798 687.382813 520.883057 681.476563 520.883057 674.754517 C 520.883057 665.878784 524.651978 658.06366 532.189758 651.30896 C 539.7276 644.55426 550.055298 641.177002 563.173096 641.177002 C 575.834106 641.177002 585.574463 644.16272 592.394409 650.134277 C 599.214294 656.105835 602.624268 663.268311 602.624268 671.621948 C 602.624268 677.887146 600.78064 683.418091 597.093262 688.214844 C 593.405945 693.011658 587.679199 697.335327 579.912964 701.185791 Z M 572.473022 696.193237 C 574.887756 692.930054 576.682434 689.275391 577.857178 685.229126 C 579.031921 681.182861 579.619263 676.744995 579.619263 671.915588 C 579.619263 663.431396 577.791931 656.937866 574.137207 652.434753 C 571.396179 648.97583 567.610962 647.246338 562.781555 647.246338 C 558.408936 647.246338 554.689026 648.828979 551.621643 651.994263 C 548.554321 655.159424 547.020691 659.091553 547.020691 663.790405 C 547.020691 668.554565 548.733826 673.498169 552.160095 678.621338 C 555.586365 683.744385 562.357361 689.601685 572.473022 696.193237 Z M 552.894287 716.848755 C 550.871155 718.676147 549.435364 720.340332 548.586975 721.84137 C 547.281738 724.125549 546.106995 727.453918 545.062805 731.826538 C 544.018616 736.199097 543.496521 740.767456 543.496521 745.531616 C 543.496521 751.666382 544.279663 756.805725 545.845947 760.94989 C 547.412231 765.094055 549.647461 768.079834 552.551636 769.907166 C 555.455811 771.734497 558.441589 772.648193 561.508911 772.648193 C 566.273071 772.648193 570.286743 770.902405 573.549866 767.410889 C 576.812988 763.919312 578.444519 759.138916 578.444519 753.069458 C 578.444519 740.408447 569.927856 728.335022 552.894287 716.848755 Z M 446.875427 778.913391 L 482.998199 669.370361 L 455.490082 669.370361 C 444.721741 669.370361 436.629272 670.773499 431.212433 673.579773 C 427.427216 675.537659 424.294617 679.224976 421.814636 684.641724 L 418.094696 684.641724 L 427.688263 643.428528 L 506.786377 643.428528 L 462.244751 778.913391 Z M 341.63974 643.428528 L 403.802216 643.428528 L 393.914948 668.685059 L 341.63974 668.685059 L 336.647156 681.900757 C 359.162811 682.749146 376.489838 688.361694 388.628693 698.738464 C 398.613892 707.287842 403.606415 717.925537 403.606415 730.651794 C 403.606415 738.809631 401.289612 746.787903 396.655975 754.586792 C 392.022339 762.385742 385.496124 768.389771 377.07724 772.599243 C 368.658325 776.808655 359.423798 778.913391 349.373322 778.913391 C 338.539703 778.913391 330.218842 776.890259 324.410431 772.843994 C 320.364166 769.972412 318.341034 766.70929 318.341034 763.054565 C 318.341034 760.248291 319.40155 757.768311 321.522583 755.614685 C 323.643616 753.46106 326.107269 752.384155 328.913544 752.384155 C 331.458771 752.384155 334.036652 752.90625 336.647156 753.9505 C 339.25766 754.99469 343.728088 757.735718 350.058594 762.173584 C 354.039581 764.914551 357.465881 766.80719 360.337433 767.851379 C 362.360565 768.634521 364.644745 769.026123 367.189972 769.026123 C 372.541534 769.026123 377.093567 767.068237 380.84613 763.152466 C 384.598724 759.236755 386.475037 754.537903 386.475037 749.055786 C 386.475037 737.56958 380.731964 728.237122 369.245758 721.058228 C 357.759521 713.879272 343.271362 710.289917 325.780945 710.289917 C 324.01886 710.289917 321.375732 710.32251 317.851563 710.387817 Z"/>
</svg>
